<svg xmlns="http://www.w3.org/2000/svg" width="204.6" height="37.12" viewBox="0 0 204.6 37.12">
  <g id="Group_2482" data-name="Group 2482" transform="translate(-214 -43.88)">
    <path id="Velocity" d="M2.16,7.48v-28.4h5.2v2.2a6.613,6.613,0,0,1,1.06-1.06,8.031,8.031,0,0,1,2.1-1.1,8.313,8.313,0,0,1,3.04-.56,9.631,9.631,0,0,1,7.36,3.08,11.078,11.078,0,0,1,2.88,7.88,11.5,11.5,0,0,1-2.72,7.94A9.164,9.164,0,0,1,13.88.52,8.423,8.423,0,0,1,10.8-.04a8.031,8.031,0,0,1-2.1-1.1A6.1,6.1,0,0,1,7.68-2.16V7.48Zm5.36-18A6.446,6.446,0,0,0,9.02-6a4.994,4.994,0,0,0,3.86,1.64,4.872,4.872,0,0,0,3.88-1.72,6.566,6.566,0,0,0,1.48-4.44,6.267,6.267,0,0,0-1.5-4.4,4.994,4.994,0,0,0-3.86-1.64,4.833,4.833,0,0,0-3.9,1.74A6.463,6.463,0,0,0,7.52-10.52ZM38.16-21.44v5.6q-5.64,0-5.64,6.72V0H27V-20.92h5.4v3.04a5.9,5.9,0,0,1,2.24-2.58A6.352,6.352,0,0,1,38.16-21.44ZM41.4,0V-20.92h5.52V0Zm.44-23.7a3.03,3.03,0,0,1-.92-2.26,3.03,3.03,0,0,1,.92-2.26,3.132,3.132,0,0,1,2.28-.9,3.182,3.182,0,0,1,2.32.9,3.03,3.03,0,0,1,.92,2.26,3.03,3.03,0,0,1-.92,2.26,3.182,3.182,0,0,1-2.32.9A3.132,3.132,0,0,1,41.84-23.7Zm20.44,2.26q7.24,0,7.24,9.36V0H64V-12.72a3.718,3.718,0,0,0-1.02-2.72,3.32,3.32,0,0,0-2.46-1.04,3.508,3.508,0,0,0-2.7,1.1,3.984,3.984,0,0,0-1.02,2.82V0H51.28V-20.92h5.4v2.44a6.524,6.524,0,0,1,2.24-2.08A6.448,6.448,0,0,1,62.28-21.44Zm11.92.52v-4.4h5.44v4.4h3.92v4.48H79.64v8.08a4.6,4.6,0,0,0,.7,3,3.126,3.126,0,0,0,2.38.76q.56,0,1-.04V.08a10.747,10.747,0,0,1-2.36.2q-3.72,0-5.46-2.1T74.16-8.2v-8.24h-2.2v-4.48ZM87,0V-20.92h5.52V0Zm.44-23.7a3.03,3.03,0,0,1-.92-2.26,3.03,3.03,0,0,1,.92-2.26,3.132,3.132,0,0,1,2.28-.9,3.182,3.182,0,0,1,2.32.9,3.03,3.03,0,0,1,.92,2.26,3.03,3.03,0,0,1-.92,2.26,3.182,3.182,0,0,1-2.32.9A3.132,3.132,0,0,1,87.44-23.7Zm24.68,6.22L102.68-4.6h9.56V0H95.84V-3.4l9.44-12.92H96.12v-4.6h16Zm1.76,7.08a11.194,11.194,0,0,1,2.9-7.9,9.56,9.56,0,0,1,7.34-3.14,9.544,9.544,0,0,1,7.48,2.98q2.68,2.98,2.68,8.18,0,.8-.04,1.2H119.52a4.649,4.649,0,0,0,1.6,3.46,5.594,5.594,0,0,0,3.84,1.34,5.786,5.786,0,0,0,5.08-2.56l3.64,2.76a9.429,9.429,0,0,1-3.12,3.1,10,10,0,0,1-5.68,1.5,10.71,10.71,0,0,1-7.98-3.06A10.716,10.716,0,0,1,113.88-10.4Zm5.8-2.28h9a4.277,4.277,0,0,0-1.32-3.08,4.442,4.442,0,0,0-3.16-1.16,4.221,4.221,0,0,0-3.12,1.2A4.907,4.907,0,0,0,119.68-12.68Zm28.68-8.76q7.24,0,7.24,9.36V0h-5.52V-12.72a3.718,3.718,0,0,0-1.02-2.72,3.32,3.32,0,0,0-2.46-1.04,3.508,3.508,0,0,0-2.7,1.1,3.983,3.983,0,0,0-1.02,2.82V0h-5.52V-20.92h5.4v2.44A6.524,6.524,0,0,1,145-20.56,6.448,6.448,0,0,1,148.36-21.44Z" transform="translate(263 73)" fill="#6c63ff"/>
    <path id="Subtraction_1" data-name="Subtraction 1" d="M16.009,37H5.336L0,27.75l5.3-9.185,5.214,9.9H20.935L16.009,37Zm15.654-8.538H21.007L26.255,18.5,21.007,8.538H31.663L37,18.5l-5.337,9.962ZM5.3,18.434v0L0,9.25,5.336,0H16.009l4.926,8.538H10.512L5.3,18.433Z" transform="translate(214 44)" fill="#6c63ff"/>
  </g>
</svg>
